<svg width="334" height="128" viewBox="0 0 334 128" fill="none" xmlns="http://www.w3.org/2000/svg">
<path d="M2 64.205C13 -18.3417 24 -18.3417 35 64.205C45.9636 146.205 56.9636 146.205 68 64.205C79 -17.795 90 -17.795 101 64.205C111.01 131.445 122.01 131.445 134 64.205C145 -3.035 156 -3.035 167 64.205C177.061 119.965 188.061 119.965 200 64.205C211 8.445 222 8.445 233 64.205C243.946 119.418 254.946 119.418 266 64.205C277 8.99167 288 8.99167 299 64.205C310.871 128.165 321.871 128.165 332 64.205" stroke="#009688" stroke-width="3"/>
</svg>
